<?xml version="1.0" encoding="utf-8"?>
<!-- Generator: Adobe Illustrator 15.0.0, SVG Export Plug-In  -->
<!DOCTYPE svg PUBLIC "-//W3C//DTD SVG 1.1//EN" "http://www.w3.org/Graphics/SVG/1.1/DTD/svg11.dtd" [
	<!ENTITY ns_flows "http://ns.adobe.com/Flows/1.0/">
]>
<svg version="1.1"
	 xmlns="http://www.w3.org/2000/svg" xmlns:xlink="http://www.w3.org/1999/xlink" xmlns:a="http://ns.adobe.com/AdobeSVGViewerExtensions/3.0/"
	 x="0px" y="0px" width="108px" height="27px" viewBox="0 0 108 27" overflow="visible" enable-background="new 0 0 108 27"
	 xml:space="preserve">
<defs>
</defs>
<rect x="9.787" y="11.116" fill="none" width="110.667" height="31.379"/>
<linearGradient id="SVGID_1_" gradientUnits="userSpaceOnUse" x1="51.6836" y1="241.1973" x2="67.9496" y2="232.5485" gradientTransform="matrix(1.7228 0 0 1.7228 -48.1782 -400.5382)">
	<stop  offset="0.0393" style="stop-color:#D1D3D4"/>
	<stop  offset="0.1966" style="stop-color:#FFFFFF"/>
	<stop  offset="0.3708" style="stop-color:#C7C8CA"/>
	<stop  offset="0.4044" style="stop-color:#D1D3D4"/>
	<stop  offset="0.491" style="stop-color:#E8E9EA"/>
	<stop  offset="0.567" style="stop-color:#F7F7F8"/>
	<stop  offset="0.6236" style="stop-color:#FFFFFF"/>
	<stop  offset="0.7319" style="stop-color:#DADBDC"/>
	<stop  offset="0.7753" style="stop-color:#CBCCCE"/>
	<stop  offset="1" style="stop-color:#FFFFFF"/>
</linearGradient>
<path fill="url(#SVGID_1_)" d="M53.994,2.277c2.255,0.823,3.179-0.51,5.031-0.173c1.632,0.296,2.217,0.19,3.218-0.067
	c0.79-0.203,3.145-0.422,4.084-0.359c1.786,0.12,2.315-0.191,2.521,0.019c0.89,0.914-0.352,10.029,4.338,14.003
	c0,0-1.375-0.063-6.432-0.523c0,0-2.458-0.371-4.596-0.953c0,0-2.831,1.146-6.809,0.337c-0.114-0.023-2.023-0.405-2.023-0.405
	s-4.16-0.882-7.182,1.843c0,0-2.982-1.881-4.63-0.567c0,0-0.529-6.063-5.042-12.2c-0.154-0.209,0.374-0.251-1.156-3.176
	C35.317,0.056,46.368-0.507,53.994,2.277z"/>
<linearGradient id="SVGID_2_" gradientUnits="userSpaceOnUse" x1="62.0161" y1="240.667" x2="70.0559" y2="236.918" gradientTransform="matrix(1.7228 0 0 1.7228 -48.5405 -401.0665)">
	<stop  offset="0.0337" style="stop-color:#83A6D7"/>
	<stop  offset="0.0869" style="stop-color:#7EA2D5"/>
	<stop  offset="0.1557" style="stop-color:#7099D0"/>
	<stop  offset="0.2328" style="stop-color:#578CC9"/>
	<stop  offset="0.2978" style="stop-color:#3680C2"/>
	<stop  offset="0.391" style="stop-color:#1478BE"/>
	<stop  offset="0.5506" style="stop-color:#006BB6"/>
	<stop  offset="0.629" style="stop-color:#0075BC"/>
	<stop  offset="0.7247" style="stop-color:#4986C6"/>
	<stop  offset="0.7676" style="stop-color:#5B8ECA"/>
	<stop  offset="0.8322" style="stop-color:#6D98D0"/>
	<stop  offset="0.8764" style="stop-color:#749CD2"/>
</linearGradient>
<path fill="url(#SVGID_2_)" d="M73.26,15.674c-0.743-0.884-4.457-3.767-14.285-7.562c0,0,2.113-2.657,10.313-3.542
	c0,0,0.008-2.298-0.204-3.034c0,0-5.19-0.569-11.642,3.583c0,0,0.145,1.909,0.645,3.11c0,0,0.723,1.701-0.439,2.95
	c0,0,4.703,1.148,9.104,3.999c0,0,2.985,0.308,5.038,0.575C72.108,15.705,73.26,15.674,73.26,15.674z"/>
<path fill="#006BB6" d="M66.696,11.473l1.714,3.86c0,0,3.282,0.343,5.194,0.686C73.604,16.018,72.45,14.305,66.696,11.473z"/>
<linearGradient id="SVGID_3_" gradientUnits="userSpaceOnUse" x1="50.1929" y1="238.1611" x2="57.0762" y2="234.9514" gradientTransform="matrix(1.7228 0 0 1.7228 -48.5405 -401.0665)">
	<stop  offset="0" style="stop-color:#006BB6"/>
	<stop  offset="0.0602" style="stop-color:#006EB8"/>
	<stop  offset="0.1548" style="stop-color:#0075BD"/>
	<stop  offset="0.2719" style="stop-color:#4584C5"/>
	<stop  offset="0.4058" style="stop-color:#769DD2"/>
	<stop  offset="0.4719" style="stop-color:#8FADDA"/>
	<stop  offset="0.6798" style="stop-color:#0073BB"/>
	<stop  offset="0.7439" style="stop-color:#006FB9"/>
	<stop  offset="0.8608" style="stop-color:#006CB7"/>
	<stop  offset="1" style="stop-color:#006BB6"/>
</linearGradient>
<path fill="url(#SVGID_3_)" d="M49.614,8.358c-4.798,2.287-8.103,7.056-8.103,7.056c0.351,0.899,0.538,1.69,0.538,1.69
	c0.217-0.11,4.091-1.129,4.091-1.129c2.408-3.879,6.464-5.203,6.464-5.203c-2.419-1.079-3.187-6.248-3.265-6.295
	c-8.37-4.991-14.293-4.46-14.293-4.46c0.722,1.438,1.414,3.194,1.414,3.194C45.798,4.894,49.614,8.358,49.614,8.358z"/>
<path fill="#006BB6" d="M12.333,16.502c0-0.321-0.208-0.483-0.619-0.483l-0.756,0.018l-0.745,0.017l-1.517-0.035
	c-0.25,0-0.772,0-0.772,0.5c0,0.432,0.369,0.437,0.589,0.44l0.184,0.008c0.369,0.048,0.649,0.151,0.807,0.497
	c0.124,0.278,0.124,0.825,0.124,1.151c0,0,0,3.083,0,3.739c-0.454-0.562-4.622-5.721-4.622-5.721l-0.117-0.146
	c-0.333-0.422-0.392-0.469-1.051-0.469h-3c-0.234,0-0.721,0-0.721,0.45c0,0.468,0.457,0.485,0.701,0.495l0.097,0.004
	c0.615,0.037,0.656,0.479,0.651,1.201l-0.001,0.14v5.3l0.001,0.236c0.004,0.544,0.009,1.289-0.146,1.727
	c-0.109,0.3-0.252,0.401-0.588,0.417c-0.002,0-0.102,0.004-0.102,0.004C0.476,26.003,0,26.021,0,26.489c0,0.312,0.225,0.5,0.602,0.5
	l1.619-0.068l1.602,0.068c0.41,0,0.653-0.188,0.653-0.5c0-0.465-0.509-0.486-0.753-0.496l-0.094-0.004
	c-0.453-0.033-0.725-0.131-0.864-0.551c-0.112-0.336-0.112-1.227-0.112-1.608c0,0,0-4.522,0-5.219
	c0.468,0.584,6.479,8.085,6.479,8.085c-0.001-0.001,0.072,0.096,0.072,0.096c0.222,0.292,0.473,0.623,0.925,0.623
	c0.24,0,0.4-0.049,0.503-0.155c0.118-0.12,0.137-0.285,0.137-0.476c0-0.044,0-0.09-0.002-0.136l-0.002-0.159v-8.078l-0.001-0.207
	c-0.002-0.061-0.002-0.121-0.002-0.178c0-0.617,0.071-0.995,0.579-1.06l0.211-0.006c0.238,0,0.507,0,0.667-0.159
	C12.294,16.726,12.333,16.625,12.333,16.502z"/>
<path fill="#006BB6" d="M18.071,15.747c-1.708,0-3.158,0.576-4.31,1.71c-1.121,1.086-1.764,2.563-1.764,4.055
	c0,1.663,0.766,3.292,1.998,4.254c1.07,0.844,2.832,1.41,4.382,1.41c3.443,0,6.141-2.517,6.141-5.732
	C24.518,17.744,21.196,15.747,18.071,15.747z M18.582,26.278c-1.357,0-2.202-1.223-2.584-1.951c-0.491-0.966-0.75-2.116-0.75-3.325
	c0-1.513,0.569-4.375,2.721-4.375c2.52,0,3.335,3.545,3.335,5.261C21.303,23.407,20.734,26.278,18.582,26.278z"/>
<path fill="#006BB6" d="M33.759,17.995c0.215-0.511,0.4-0.953,0.951-1.028c0.001,0,0.148-0.013,0.148-0.013
	c0.229-0.014,0.656-0.041,0.656-0.435c0-0.15-0.061-0.5-0.619-0.5l-1.449,0.035l-1.465-0.035c-0.188,0-0.688,0-0.688,0.467
	c0,0.462,0.431,0.469,0.688,0.473l0.187,0.009c0.19,0.02,0.505,0.105,0.505,0.455c0,0.244-0.161,0.693-0.312,1.033
	c0,0-1.655,4.024-1.882,4.579c-0.234-0.561-2.173-5.189-2.173-5.189c-0.075-0.179-0.188-0.45-0.188-0.609
	c0-0.158,0.163-0.257,0.28-0.268c0.003,0,0.214-0.008,0.214-0.008c0.3,0,0.801-0.002,0.801-0.491c0-0.117-0.039-0.218-0.114-0.293
	c-0.164-0.162-0.445-0.159-0.65-0.157h-0.059l-1.978,0.069l-2.42-0.069l-0.081,0c-0.197-0.004-0.442-0.01-0.594,0.138
	c-0.076,0.074-0.114,0.173-0.114,0.294c0,0.478,0.393,0.505,0.541,0.517c-0.006,0,0.03,0.003,0.03,0.003
	c0.257,0.03,0.427,0.05,0.57,0.219c0.194,0.248,0.436,0.816,0.505,0.985c0.001,0.002,3.58,8.268,3.58,8.268
	c-0.001-0.002,0.059,0.148,0.059,0.148c0.127,0.327,0.227,0.585,0.753,0.585c0.432,0,0.551-0.241,0.663-0.555
	c-0.004,0.007,3.524-8.326,3.524-8.326C33.626,18.3,33.759,17.995,33.759,17.995z"/>
<path fill="#006BB6" d="M43.546,25.993l-0.111-0.004c-0.288-0.014-0.403-0.082-0.591-0.35c-0.158-0.229-0.339-0.664-0.41-0.839
	c-0.001-0.002-3.512-8.286-3.512-8.286l-0.077-0.19c-0.149-0.379-0.253-0.577-0.804-0.577c-0.688,0-0.812,0.313-0.984,0.749
	l-0.083,0.208l-1.979,4.672l-0.938,2.352l-0.172,0.453c-0.168,0.451-0.379,1.012-0.537,1.304c-0.224,0.404-0.338,0.425-0.819,0.508
	c-0.229,0.035-0.595,0.092-0.595,0.498c0,0.229,0.117,0.5,0.67,0.5l1.602-0.035l1.602,0.035c0.613,0,0.705-0.313,0.705-0.5
	c0-0.464-0.457-0.527-0.824-0.576c-0.538-0.074-0.967-0.133-0.92-0.643c0.021-0.229,0.133-0.537,0.188-0.697l0.05-0.15l0.033-0.089
	c0.122-0.327,0.186-0.557,0.669-0.554h2.427c0.654-0.024,0.673,0.29,0.81,0.661l0.037,0.1c0.001,0.003,0.256,0.636,0.256,0.636
	c0.064,0.161,0.16,0.403,0.16,0.595c0,0.156-0.12,0.195-0.481,0.23c-0.3,0.031-0.711,0.072-0.711,0.486c0,0.332,0.231,0.5,0.687,0.5
	l2.489-0.068l2.079,0.068c0.179,0,0.722,0,0.722-0.5C44.182,26.011,43.785,26,43.546,25.993z M35.576,22.7
	c-0.003,0-0.005,0-0.007,0.001c0-0.001,0-0.001,0-0.001l-0.013,0h0.012c0,0,0-0.001-0.001-0.002c0-0.001,0.196-0.453,0.196-0.453
	c0.042-0.062,0.09-0.201,0.125-0.291l0.072-0.175c-0.002,0.006,0.694-1.733,0.988-2.469c0.204,0.528,0.992,2.478,0.992,2.478
	c-0.002-0.006,0.083,0.186,0.083,0.186s0.276,0.688,0.29,0.726c-0.011,0.006,0.011,0.006,0.042,0.003v0.01L35.576,22.7z"/>
<path fill="#006BB6" d="M107.367,25.993l-0.111-0.004c-0.288-0.014-0.403-0.082-0.592-0.35c-0.158-0.229-0.339-0.664-0.409-0.839
	c-0.002-0.002-3.513-8.286-3.513-8.286l-0.078-0.19c-0.148-0.379-0.252-0.577-0.803-0.577c-0.688,0-0.812,0.313-0.984,0.749
	l-0.082,0.208l-1.979,4.672l-0.938,2.352l-0.172,0.453c-0.168,0.451-0.379,1.012-0.537,1.304c-0.225,0.404-0.299,0.44-0.78,0.523
	c-0.041,0.006-0.127-0.001-0.176,0.008c-0.049-0.01-0.097-0.019-0.137-0.023c-0.89-0.143-0.889-0.404-0.885-1.275v-0.17v-6.05v-0.22
	c-0.006-0.955-0.006-1.154,0.955-1.31c0.224-0.037,0.596-0.098,0.596-0.48c0-0.31-0.191-0.467-0.567-0.467l-1.212,0.034
	l-1.226,0.035l-2.624-0.069c-0.137,0-0.551,0-0.551,0.467c0,0.382,0.39,0.439,0.599,0.47l0.064,0.01
	c0.881,0.152,0.879,0.414,0.871,1.283l-0.001,0.247v6.189c0.002,0.994,0.002,1.146-0.955,1.306
	c-0.479,0.078-0.578,0.334-0.578,0.532c0,0.212,0.095,0.466,0.551,0.466l2.453-0.068l2.625,0.068v-0.002
	c0.068,0.004,0.145,0.006,0.233,0.002l1.602-0.035l1.603,0.035c0.613,0,0.705-0.313,0.705-0.5c0-0.464-0.457-0.527-0.824-0.576
	c-0.537-0.074-0.968-0.133-0.92-0.643c0.02-0.229,0.133-0.537,0.187-0.697l0.052-0.15l0.032-0.089
	c0.121-0.327,0.186-0.557,0.668-0.554h2.428c0.654-0.024,0.673,0.29,0.81,0.661l0.037,0.1c0.001,0.003,0.256,0.636,0.256,0.636
	c0.064,0.161,0.16,0.403,0.16,0.595c0,0.156-0.12,0.195-0.481,0.23c-0.3,0.031-0.711,0.072-0.711,0.486c0,0.332,0.23,0.5,0.688,0.5
	l2.488-0.068l2.079,0.068c0.179,0,0.722,0,0.722-0.5C108.002,26.011,107.605,26,107.367,25.993z M99.396,22.7
	c-0.003,0-0.004,0-0.007,0.001c0-0.001,0-0.001-0.001-0.001h-0.012h0.012c-0.001,0-0.001-0.001-0.002-0.002
	c0-0.001,0.197-0.453,0.197-0.453c0.041-0.062,0.09-0.201,0.125-0.291l0.071-0.175c-0.002,0.006,0.693-1.733,0.988-2.469
	c0.203,0.528,0.992,2.478,0.992,2.478c-0.003-0.006,0.083,0.186,0.083,0.186s0.276,0.688,0.29,0.726
	c-0.011,0.006,0.011,0.006,0.041,0.003v0.01L99.396,22.7z"/>
<path fill="#006BB6" d="M52.092,19.759c0.002,0-0.867-0.29-0.867-0.29c-0.712-0.232-1.472-0.546-1.472-1.348
	c0-0.859,0.927-1.392,1.784-1.392c0.85,0,1.413,0.544,1.825,1.762c0.051,0.164,0.172,0.556,0.596,0.556
	c0.14,0,0.251-0.042,0.333-0.124c0.153-0.155,0.151-0.404,0.149-0.603v-1.221l0.001-0.114c0.006-0.276,0.012-0.589-0.35-0.779
	c-0.573-0.296-1.713-0.459-2.282-0.459c-2.199,0-4.573,1.371-4.573,3.584c0,1.875,1.933,2.684,3.088,3.165
	c0.001,0.001,0.349,0.136,0.349,0.136c0.985,0.38,2.103,0.811,2.103,1.948c0,1.222-1.301,1.666-2.175,1.666
	c-0.493,0-1.183-0.1-1.675-0.574c-0.368-0.369-0.482-0.778-0.628-1.298l-0.044-0.159c-0.081-0.298-0.216-0.798-0.687-0.798
	c-0.121,0-0.227,0.043-0.307,0.125c-0.193,0.198-0.184,0.582-0.178,0.836l0.002,0.102v0.937l-0.001,0.131
	c-0.004,0.477-0.006,0.764,0.573,1.053c0.741,0.361,2.078,0.578,2.944,0.578c1.294,0,2.379-0.355,3.226-1.055
	c0.899-0.766,1.416-1.8,1.416-2.836C55.243,21.052,53.558,20.228,52.092,19.759z"/>
<path fill="#006BB6" d="M66.148,23.654c-0.318,0-0.469,0.253-0.555,0.441c-0.271,0.511-0.58,1.096-1.086,1.518
	c-0.503,0.401-1.091,0.614-1.699,0.614c-1.094,0-2.106-0.598-2.778-1.639c-0.526-0.828-0.829-1.993-0.829-3.195
	c0-1.232,0.332-2.407,0.911-3.225c0.661-0.922,1.669-1.474,2.696-1.474c1.378,0,1.891,0.745,2.301,1.344
	c0.253,0.367,0.472,0.684,0.835,0.684c0.279,0,0.466-0.173,0.466-0.431l-0.062-0.48l-0.01-0.042c0,0.005-0.135-0.863-0.135-0.863
	c-0.001-0.003-0.008-0.041-0.008-0.041c-0.085-0.483-0.125-0.604-0.638-0.755c-0.794-0.224-1.788-0.363-2.597-0.363
	c-1.802,0-3.624,0.545-4.873,1.459c-1.434,1.071-2.257,2.653-2.257,4.341c0,1.65,0.852,3.313,2.223,4.34
	c1.092,0.819,2.756,1.29,4.566,1.29c0.922,0,2.25-0.141,3.346-0.805c0.562-0.327,0.579-0.607,0.609-1.115
	c0,0,0.004-0.086,0.004-0.088s0.051-0.714,0.051-0.714c0.004-0.052,0.009-0.116,0.009-0.183c0-0.164-0.025-0.353-0.145-0.481
	C66.41,23.701,66.293,23.654,66.148,23.654z"/>
<path fill="#006BB6" d="M89.833,16.484l-0.186,1.836c-0.024,0.266-0.066,0.709-0.504,0.709c-0.203,0-0.482-0.105-0.66-0.6
	c-0.471-1.17-0.634-1.445-1.998-1.445c-0.318,0-0.318,0-0.318,0.352v7.209l-0.001,0.17c-0.004,0.871-0.004,1.132,0.886,1.275
	c0.217,0.033,0.666,0.102,0.666,0.532c0,0.139-0.054,0.466-0.551,0.466l-2.625-0.068l-2.454,0.068c-0.455,0-0.552-0.254-0.552-0.466
	c0-0.198,0.101-0.454,0.58-0.532c0.915-0.152,0.954-0.299,0.954-1.179c0-0.041,0-7.453,0-7.453l-0.002-0.049
	c-0.004-0.127-0.009-0.259-0.027-0.286c-0.032-0.022-0.203-0.022-0.305-0.022c-1.059,0-1.496,0.389-2.133,1.317
	c-0.291,0.438-0.566,0.66-0.816,0.66c-0.276,0-0.448-0.198-0.448-0.517l0.068-0.343c0,0,0.021-0.071,0.021-0.069l0.44-1.704
	c0,0,0.122-0.37,0.588-0.364c1.054-0.042,2.41,0.18,8.915,0.025C89.372,16.008,89.894,16.008,89.833,16.484z"/>
<path fill="#006BB6" d="M71.288,15.803c-1.06,0.247-1.993,0.757-2.784,1.536c-1.12,1.085-1.763,2.563-1.763,4.055
	c0,1.662,0.765,3.292,1.996,4.253c1.071,0.844,2.832,1.411,4.383,1.411c3.443,0,6.141-2.518,6.141-5.731
	c0-3.572-3.093-5.556-6.119-5.691C71.802,15.64,71.288,15.803,71.288,15.803z M73.324,26.16c-1.356,0-2.201-1.224-2.584-1.952
	c-0.49-0.966-0.75-2.116-0.75-3.325c0-1.513,0.568-4.375,2.721-4.375c2.52,0,3.335,3.544,3.335,5.26
	C76.045,23.288,75.477,26.16,73.324,26.16z"/>
<linearGradient id="SVGID_4_" gradientUnits="userSpaceOnUse" x1="61.5854" y1="172.373" x2="64.6295" y2="170.2416" gradientTransform="matrix(2.5636 0 0 2.5636 -107.5444 -431.8848)">
	<stop  offset="0.382" style="stop-color:#FFE17F"/>
	<stop  offset="0.3924" style="stop-color:#FFE283"/>
	<stop  offset="0.5409" style="stop-color:#FFEBAD"/>
	<stop  offset="0.6524" style="stop-color:#FFF1C7"/>
	<stop  offset="0.7135" style="stop-color:#FFF3D1"/>
	<stop  offset="0.7606" style="stop-color:#FFF2CC"/>
	<stop  offset="0.8266" style="stop-color:#FFEFBD"/>
	<stop  offset="0.9038" style="stop-color:#FFE9A5"/>
	<stop  offset="0.9889" style="stop-color:#FFE284"/>
	<stop  offset="1" style="stop-color:#FFE17F"/>
</linearGradient>
<path fill="url(#SVGID_4_)" d="M57.473,4.905c0.003,0.363-0.003,1.488,0.491,2.981c0,0,1.593,3.24-2.271,4.618
	c0,0-0.246-0.28-1.618-0.853c0,0-2.524-0.826-3.617-3.408c0,0-0.738-1.798-1.14-4.016c0,0,1.283-0.428,2.987-0.222
	c0,0,1.014,0.117,2.664,0.593c0,0,0.811,0.226,1.596,0.2c0.047-0.001,0.195,0,0.401-0.037c0,0,0.191-0.031,0.389-0.061
	C57.488,4.682,57.473,4.905,57.473,4.905z"/>
<path d="M49.283,4.119L49.188,4.15l0.018,0.098c0.399,2.205,1.139,4.021,1.146,4.039c1.101,2.602,3.662,3.466,3.688,3.474
	c1.297,0.542,1.566,0.818,1.569,0.821l0.052,0.055l0.072-0.024c1.257-0.448,2.082-1.139,2.453-2.053
	c0.546-1.344-0.091-2.668-0.118-2.724c-0.469-1.42-0.477-2.495-0.479-2.899l-0.001-0.024c0.003-0.044,0.008-0.243-0.008-0.368
	L57.47,4.561l-0.132,0.027l-0.39,0.061c-0.002,0-0.363,0.035-0.363,0.035c-0.781,0.025-1.575-0.193-1.583-0.196
	c-1.641-0.473-2.673-0.595-2.684-0.596C50.61,3.685,49.335,4.101,49.283,4.119z M52.292,4.12c0.011,0.001,1.025,0.122,2.646,0.589
	c0.035,0.01,0.838,0.231,1.632,0.205c0.02,0,0.418-0.038,0.418-0.038c-0.002,0,0.369-0.058,0.38-0.059
	c-0.009,0.001-0.013,0.018-0.013,0.038c0,0.022,0.004,0.084,0.004,0.084c0.002,0.415,0.01,1.515,0.496,2.985
	c0.009,0.02,0.318,0.665,0.318,1.483c0,0.338-0.053,0.705-0.201,1.069c-0.34,0.834-1.107,1.466-2.262,1.891
	c-0.138-0.112-0.529-0.378-1.591-0.821c-0.033-0.011-2.497-0.846-3.556-3.347c-0.007-0.016-0.711-1.759-1.109-3.891
	C49.738,4.227,50.852,3.946,52.292,4.12z"/>
<path fill="#ED1C2E" d="M54.309,10.285c0,0-0.58-0.646,0.329-0.44c0,0,0.089,0.007,0.085,0c0.079,0.013,0.159,0.01,0.169,0.087
	c0.084,0.183,0.16,0.301,0.334,0.371c0,0,0.167,0.08,0.546,0.066c0,0-0.055,0.228-0.276,0.393c0,0-0.181,0.061-0.162,0.395
	c0,0-0.142,0.045-0.374-0.083c0,0-0.273-0.084-0.274,0.136c0,0,0.229-0.069,0.311,0.029c0,0-0.297,0.083-0.163,0.358
	c0,0,0.232,0.084,0.484-0.26c0,0,0.053,0.027,0.055,0.068c0,0-0.315,0.068,0.212,0.443c0,0-0.105-0.388,0.073-0.401
	c0,0,0.208,0.057,0.263,0.277c0,0,0.056-0.262,0.146-0.29c0,0-0.369-0.333,0.05-0.277c0,0,0.07-0.04-0.086-0.152
	c0,0,0.168-0.082,0.271,0.001c0,0-0.055-0.07-0.02-0.124h0.255c0,0-0.364-0.139,0.139-0.346c0,0-0.227-0.11-0.001-0.152
	c0,0,0.1,0.001,0.07-0.262c0,0-0.728,0.412-0.874-0.43c0,0,0.449-0.156,0.611,0.264c0,0,0.088-0.068-0.021-0.318
	c0,0,0.314-0.151,0.119-0.951c0,0-0.021-0.067,0.182-0.167c0,0,0.365-0.224-0.29-0.426c0,0,0.262,0.298-0.043,0.397
	c0,0-0.755-0.887-0.382-1.711c0,0,0.171-0.461,0.069-0.867c-0.086-0.343-0.593-0.817-1.16-0.497c0,0,0.459,0.114,0.426,0.487
	c-0.022,0.247-0.303,0.524-0.091,1.186c0.114,0.355,0.334,0.73,0.614,1.038c0,0,0.196,0.218,0.284,0.406c0,0-0.16-0.089-0.308-0.097
	c0,0-0.444-0.048,0.023,0.415c-0.049-0.053-0.26-0.305,0.377-0.141c0,0,0.392,0.71-0.049,0.819c0,0-0.289,0.027-0.502-0.236
	c0,0-0.412-0.484-0.551-0.666c0,0-0.564-0.474-0.578-1.179c0,0-0.021-0.263,0.179-0.324c0,0-0.001,0-0.002-0.001
	c0.008-0.014,0.008-0.024,0.008-0.024C54.306,6.605,54.61,6.33,54.61,6.33c0.09,0.013,0.121-0.055,0.121-0.055
	s-0.279-0.291-0.288-0.347c-0.007-0.056,0.108-0.125,0.108-0.125l-0.162-0.166c-0.136-0.056-0.174-0.456-0.174-0.456l-0.133,0.026
	c-0.102-0.193-0.33-0.346-0.33-0.346c0.003,0.208-0.401,0.245-0.401,0.245c-0.203-0.103-0.448-0.012-0.448-0.012
	c-0.251-0.028,0.006,0.234,0.006,0.234c0.059,0.162,0.361,0.278,0.361,0.278l0.266,0.139c-0.021,0.055-0.174,0.026-0.174,0.026
	c-0.229-0.152-0.47-0.104-0.47-0.104c-0.205,0.097-0.241-0.11-0.241-0.11c-0.154,0.275,0.37,0.264,0.37,0.264
	c0.355,0.006,0.462,0.159,0.462,0.159c-0.31-0.028-0.299,0.109-0.299,0.109c-0.243-0.041-0.292,0.166-0.292,0.166
	c-0.144,0.053-0.067,0.281-0.067,0.281c0.317,0.36,0.026,0.274-0.255,0.196L52.4,6.687c0.057-0.262-0.238-0.775-0.238-0.775
	c-0.411-0.596-0.237-0.734-0.237-0.734c0.26-0.289-0.062-0.387-0.062-0.387c0.095,0.139-0.024,0.2-0.024,0.2
	c-0.243-0.337-0.439-0.298-0.439-0.298c0.289,0.278,0.152,0.36,0.152,0.36c-0.379-0.36-0.572-0.195-0.572-0.195
	c0.2,0.043,0.197,0.222,0.197,0.222c0.067,0.14,0.194,0.098,0.194,0.098c0.215,0.153,0.006,0.166,0.006,0.166
	c-0.045-0.083-0.109-0.017-0.109-0.017c-0.099,0-0.183-0.01-0.183-0.01c0.051,0.268,0.468,0.249,0.486,0.235
	c0.337,0.512,0.088,0.678,0.088,0.678c0.274,0.499,0,0.484,0,0.484c0.16,0.015,0.236,0.14,0.236,0.14
	c0.049,0.167-0.188,0.137-0.188,0.137c0.152,0.139,0.471,0.154,0.471,0.154c0.177,0.134,0.26,0.177,0.29,0.201
	c0.108,0.062,0.291,0.116,0.482,0.104c0.01,0.033,0.001,0.024,0.027,0.067c0,0-0.526,0.375-1.085,0.358c0,0-0.069-0.069-0.174-0.194
	c0,0-0.194-0.138-0.242,0c0,0,0.231,0.082,0.211,0.211l-0.323-0.06c0,0,0.055,0.069,0.091,0.125c0,0,0.044,0.149,0.358,0.083
	c0,0,0.055,0.068,0.018,0.082c0,0-0.159,0.053-0.101,0.222c0,0,0.142,0.008,0.201-0.04c0,0,0.061-0.024,0.054-0.111h0.142
	c0,0,0.228-0.034,0.125,0.191c0,0,0.099,0.046,0.192-0.176c0,0,0.143-0.082,0.208,0.126c0,0,0.064-0.196,0.271-0.139
	c0,0,0.006,0.054-0.049,0.097c0,0,0.132,0.062,0.173-0.069c0,0,0.185-0.082,0.201,0.071c0,0,0.088-0.212,0.096-0.267
	c0,0,0.314,0.121,0.257,0.216c0,0,0.05,0.046,0.146,0.019c0,0,0.336,0.348,0.794,0.668c-0.224-0.005-0.375,0.008-0.419,0.02
	c-0.011-0.008-0.108-0.029-0.115-0.034c0,0-0.277-0.058-0.344,0.047c0,0-0.236,0.124-0.103,0.511c0,0-0.081,0.253-0.219,0.115
	c0,0-0.229-0.153-0.473-0.194c0,0-0.334-0.113-0.426-0.325c0,0-0.142-0.236-0.392,0.004c0,0,0.173,0.041,0.226,0.139
	c0,0,0.1,0.094,0.205,0.098c0,0,0.049,0.055,0.031,0.083c0,0-0.501-0.071-0.345,0.249c0,0,0.07-0.111,0.251,0.027
	c0,0,0.145,0.042,0.182-0.082c0,0,0.214,0.111-0.04,0.305c0,0,0.177,0.125,0.331-0.139c0,0,0.216,0.042,0.309,0.361
	c0,0,0.221-0.294,0.342,0.025c0,0,0.097-0.194,0.17,0.11c0,0,0.15,0.098,0.285,0.002C53.998,10.25,54.055,10.346,54.309,10.285z"/>
</svg>
